# xmcd
#
# Track frame offsets:
#	150
#	20042
#	37907
#	55189
#	71267
#
# Disc length: 1190 seconds
#
# Revision: 0
# Processed by: cddbd v1.5.2PL0 Copyright (c) Steve Scherf et al.
# Submitted via: EZCDAudioConverter 8.3.2.1
#
DISCID=3804a405
DTITLE=Various Artist - Coca-Cola Pop 2
DYEAR=2015
DGENRE=Pop
TTITLE0=Elefante - Así es La Vida
TTITLE1=Gian Marco - Lamento
TTITLE2=Maia - Candela
TTITLE3=Sidestepper - Más Papaya
TTITLE4=Q'arto Aparte - Todo De Tí
EXTD=
EXTT0=
EXTT1=
EXTT2=
EXTT3=
EXTT4=
PLAYORDER=
